ply
format ascii 1.0
element vertex 24
property float x
property float y
property float z
end_header
-0.09692 0.25537 1.00000
-0.27774 0.11735 1.00000
-1.76932 -2.75421 1.00000
-2.63336 -4.10243 1.00000
-5.88260 -3.87087 1.00000
-7.13840 -3.68244 1.00000
-7.43357 -3.42930 1.00000
-6.65719 -6.11133 1.00000
-6.40958 -4.53028 1.00000
-3.68742 -4.29175 1.00000
-0.72750 -2.92326 1.00000
2.54345 -2.79334 1.00000
5.80547 -2.65857 1.00000
7.27669 -4.53335 1.00000
7.43908 -5.98958 1.00000
8.35170 -4.72856 1.00000
7.68179 -6.10742 1.00000
7.28377 -3.53712 1.00000
4.54208 -2.67243 1.00000
0.81310 -2.79678 1.00000
-1.25153 -1.25459 1.00000
0.02641 0.34203 1.00000
-0.04796 0.35918 1.00000
2.70393 0.71951 1.00000
