ply
format ascii 1.0
element vertex 44
property float x
property float y
property float z
end_header
0.00000 0.00000 0.75000
2.10192 0.56463 0.73910
4.99622 -0.10401 0.71234
6.11151 -5.94503 0.71057
8.02947 -10.87653 0.71057
13.21706 -12.52546 0.68083
19.16781 -13.05083 0.68083
25.81171 -12.90349 0.68083
31.97099 -13.17949 0.68083
38.45345 -13.19557 0.70540
44.33289 -13.15061 0.70540
49.28200 -13.12479 0.70540
55.63452 -13.39680 0.70540
61.65073 -13.12024 0.70540
66.89336 -11.30774 0.70145
67.52456 -5.57993 0.70145
67.73109 -0.21109 0.70145
67.77926 6.45473 0.70145
67.68213 11.72624 0.70145
64.85979 14.05723 0.70145
65.46829 18.87201 0.71186
64.89851 16.69668 0.71864
63.61361 12.66808 0.72632
60.83287 8.66040 0.72632
60.81357 2.86132 0.72632
60.09488 -2.68746 0.72632
55.18548 -4.35082 0.72348
54.55142 -10.13482 0.72348
50.83677 -13.05584 0.72348
45.03728 -13.07110 0.72348
38.63668 -13.67945 0.72348
36.87372 -18.16792 0.72348
36.75433 -19.69268 0.72588
35.27185 -13.48740 0.71763
30.63886 -13.10821 0.71763
24.64624 -13.10752 0.71763
18.62067 -13.06671 0.71763
11.97885 -12.17067 0.68819
8.57662 -10.04645 0.68075
9.19059 -6.10960 0.68075
6.33490 -6.25347 0.68075
5.43264 -3.18418 0.68675
4.20825 1.44460 0.70199
0.12820 0.06411 0.67700
