ply
format ascii 1.0
element vertex 19
property float x
property float y
property float z
end_header
2.81041 1.56304 0.93216
5.17180 0.56891 0.93574
8.655037 -21.635523 1.0000
8.726027 -25.367550 1.0000
11.04439 -5.175140 1.0000
12.0490 -13.4439 1.0000
24.6783 -13.4315 1.0000
26.5537 -10.1332 1.0000
26.5452 -18.3600 1.0000
36.3581 -12.9733 1.0000
36.6852 -23.6469 1.0000
36.3581 -12.9733 1.0000
45.5028 -12.8882 1.0000
67.9557 -13.3566 1.0000
67.4455 -21.4650 1.0000
61.257652 -21.4397 1.0000
67.4455 -21.4650 1.0000
67.9557 -13.3566 1.0000
67.1560 -11.4477 1.0000