ply
format ascii 1.0
element vertex 71
property float x
property float y
property float z
end_header
2.81041 1.56304 0.93216
5.17180 0.56891 0.93574
5.80634 -2.46848 0.94430
5.93638 -5.61054 0.94889
6.62556 -8.72298 0.94889
7.35783 -10.42887 0.94889
10.04865 -11.53294 0.93965
12.51839 -12.90610 0.93098
15.85645 -13.11745 0.93129
19.12776 -13.09151 0.93129
22.46860 -13.02844 0.93129
25.63214 -12.90147 0.93129
28.90444 -13.06323 0.93129
32.27002 -13.23581 0.93129
35.66917 -13.41021 0.93129
39.01342 -13.43001 0.94766
42.39667 -13.20568 0.94766
45.78910 -13.03701 0.94766
49.10477 -12.84694 0.94766
52.41907 -12.90127 0.94766
54.31631 -11.20119 0.94766
54.78153 -7.88439 0.94766
54.98989 -4.52425 0.94766
57.41985 -3.21184 0.95176
60.29068 -2.58797 0.95176
60.77843 0.46276 0.95176
60.81667 3.86060 0.95176
60.80639 7.16307 0.95176
60.92154 10.39377 0.95176
62.84148 12.44875 0.95176
64.84865 14.21050 0.95176
65.18394 17.58544 0.97320
65.48590 19.18700 0.96122
65.49429 19.11496 0.96079
65.54675 15.83692 0.96812
65.40077 13.95279 0.97349
65.47038 12.65422 0.97349
67.75951 11.82192 0.97349
67.74535 9.98856 0.97349
67.69901 6.63347 0.97349
67.85203 3.26159 0.97349
67.77684 -0.06092 0.97349
67.94999 -3.00845 0.97349
67.72767 -6.18082 0.97349
67.23819 -8.39703 0.97349
67.51947 -11.02496 0.97349
67.50386 -13.42375 0.95938
66.35696 -12.98870 0.95938
62.99409 -12.91129 0.95304
59.63348 -13.17205 0.95304
56.71526 -13.55558 0.95304
53.39933 -13.25181 0.95304
52.50359 -13.15971 0.95304
52.51793 -15.55336 0.95304
52.23938 -14.29059 0.95304
49.39556 -13.50195 0.95304
45.98690 -13.13807 0.95304
42.62433 -13.16507 0.95304
39.20812 -13.28627 0.95304
36.64098 -13.42147 0.96104
36.82202 -16.55004 0.96221
36.71974 -19.94772 0.97183
35.70309 -22.18766 0.97468
32.57171 -22.95992 0.97468
29.24013 -22.95052 0.97468
26.92611 -21.48365 0.97468
26.98009 -18.12810 0.97468
26.83796 -14.87937 0.97468
29.17861 -13.08213 0.97468
32.54353 -13.24551 0.97468
34.96553 -13.22299 0.97468
